<?xml version="1.0" encoding="UTF-8" standalone="no"?>
<svg id="Layer_1" data-name="Layer 1" viewBox="0 0 439.37 612.09" version="1.1" sodipodi:docname="SU logo_vertical_CMYK_with_slogan_FA-01.svg" inkscape:version="1.1.1 (3bf5ae0d25, 2021-09-20)" xmlns:inkscape="http://www.inkscape.org/namespaces/inkscape" xmlns:sodipodi="http://sodipodi.sourceforge.net/DTD/sodipodi-0.dtd" xmlns="http://www.w3.org/2000/svg" xmlns:svg="http://www.w3.org/2000/svg">
  <sodipodi:namedview id="namedview47" pagecolor="#ffffff" bordercolor="#666666" borderopacity="1.0" inkscape:pageshadow="2" inkscape:pageopacity="0.0" inkscape:pagecheckerboard="0" showgrid="false" inkscape:zoom="1.3576434" inkscape:cx="219.49799" inkscape:cy="272.53106" inkscape:window-width="1920" inkscape:window-height="1012" inkscape:window-x="0" inkscape:window-y="32" inkscape:window-maximized="1" inkscape:current-layer="Layer_1"/>
  <defs id="defs4">
    <style id="style2">.cls-1{fill:#bb935b;}.cls-2{fill:#73113c;}</style>
  </defs>
  <path class="cls-1" d="m 229.05358,59.66047 c -6.78062,8.60912 -39.65527,55.61644 -21.52279,114.62319 23.65604,84.49125 138.62204,140.45054 148.56445,230.1606 9.82809,81.13904 -60.94953,118.35632 -63.88272,119.95627 -2.93321,1.59991 -4.83786,2.01895 -5.98068,1.0285 -1.1428,-0.99041 -1.10471,-2.55224 0.45712,-5.2188 7.61868,-15.23736 29.6367,-49.52148 13.82793,-110.09003 C 277.2037,331.91435 185.93181,280.90721 155.11421,196.11119 126.08701,108.76293 180.14162,59.66047 180.14162,59.66047 Z M 60.413921,317.78167 v -26.09402 c 20.837099,38.09345 43.578899,60.53049 63.235119,83.27227 17.14203,19.8086 35.69354,35.84595 47.31206,62.05424 23.96077,54.09269 -31.35092,81.74854 -71.729956,25.82734 C 57.328355,404.97757 60.413921,317.78167 60.413921,317.78167 M 280.97494,33.375994 H 15.463658 V 57.10821 a 2.0951395,2.0951395 0 0 0 2.209417,2.247513 c 2.285594,0 11.085171,-0.838055 11.085171,10.094762 V 302.12526 c 0,34.55077 1.561853,92.56708 20.532389,142.27903 18.741976,47.31206 54.054595,87.61492 107.156845,81.74853 40.11241,-4.95216 85.17694,-54.09269 29.86526,-134.01274 C 138.23883,331.83816 89.860152,299.26825 65.861284,210.16767 42.510004,108.15344 85.403205,65.145928 92.298128,59.584284 h 49.521462 c 0,0 -45.940689,44.264596 -25.06548,133.669906 15.23739,64.30175 71.31093,114.01369 104.49031,155.23081 30.47476,38.09344 52.87371,68.79674 46.32164,121.02287 a 108.90916,108.90916 0 0 1 -75.61548,91.15761 c -9.75193,3.3903 -4.07601,9.44716 -0.79997,10.93282 a 121.89902,121.89902 0 0 0 34.28409,10.66616 C 240.67207,581.35022 386.68426,551.25639 392.55066,421.5863 398.41704,291.91621 243.49099,245.82315 237.28178,140.11384 A 127.23211,127.23211 0 0 1 282.99389,38.51861 c 2.09515,-1.676112 3.46651,-5.218804 -1.82848,-5.218804 M 382.8749,185.67359 a 201.0953,201.0953 0 0 0 -22.13228,-22.85607 c -13.8279,-12.30418 -34.28409,-35.65546 -25.90354,-66.930182 8.6853,-32.341336 33.1413,-32.950832 35.42691,-32.950832 2.2856,0 12.60891,-0.304748 12.60891,9.218614 z M 426.37763,56.917742 V 34.061675 h -40.30287 a 95.424079,95.424079 0 0 0 -54.01651,16.265901 c -15.46591,10.818538 -29.5605,35.998307 -29.5605,58.092514 0,37.52203 18.43722,59.61623 36.22686,76.83447 27.61776,26.66541 49.17865,48.15012 67.00636,73.71082 4.30458,5.90449 7.39013,1.71421 7.12349,-1.48563 V 70.402823 c 0,-3.809345 -0.68568,-11.123285 10.89472,-11.123285 a 2.1332329,2.1332329 0 0 0 2.43798,-2.437982" id="path6" style="stroke-width:3.80933"/>
</svg>